<svg width="51" height="46" viewBox="0 0 51 46" fill="none" xmlns="http://www.w3.org/2000/svg">
<path d="M46.1054 24.9073C46.1054 20.3779 44.286 16.0338 41.0476 12.831C37.8092 9.62819 33.417 7.82886 28.8372 7.82886C24.2574 7.82886 19.8652 9.62819 16.6267 12.831C13.3883 16.0338 11.569 20.3779 11.569 24.9073H16.9654C18.7535 24.9073 20.1481 23.4252 20.8031 21.7796C21.2331 20.6991 21.8857 19.7062 22.7319 18.8691C24.3511 17.2677 26.5473 16.3681 28.8372 16.3681C31.1271 16.3681 33.3232 17.2677 34.9424 18.8691C36.5616 20.4705 37.4712 22.6426 37.4712 24.9073H46.1054Z" fill="url(#paint0_linear_829_8964)"/>
<path d="M36.1577 31.4432C37.0255 29.3712 37.4722 27.1504 37.4722 24.9077H46.1054C46.1054 34.3398 38.3741 41.986 28.8372 41.986C27.3437 41.986 25.8943 41.7985 24.5122 41.446C25.2942 41.2467 26.0628 40.993 26.8122 40.686C28.9073 39.8277 30.8109 38.5698 32.4145 36.9839C34.018 35.398 35.29 33.5153 36.1577 31.4432Z" fill="#FBCF8E"/>
<path d="M2.93579 24.9077C2.93579 27.1505 3.38245 29.3713 4.25025 31.4433C5.11806 33.5154 6.39002 35.3981 7.99353 36.984C9.59702 38.5698 11.5007 39.8278 13.5957 40.6861C15.6908 41.5444 17.9363 41.9861 20.204 41.9861C22.4716 41.9861 24.7171 41.5444 26.8122 40.6861C28.9073 39.8278 30.8109 38.5698 32.4144 36.984C34.018 35.3981 35.2899 33.5154 36.1577 31.4433C37.0255 29.3713 37.4722 27.1505 37.4722 24.9077H32.0758C30.2876 24.9077 28.8931 26.3897 28.2381 28.0353C28.2195 28.0822 28.2003 28.1289 28.1808 28.1756C27.7469 29.2115 27.111 30.1529 26.3092 30.9458C25.5075 31.7387 24.5556 32.3678 23.5081 32.7969C22.4606 33.2261 21.3379 33.4469 20.204 33.4469C19.0701 33.4469 17.9474 33.2261 16.8999 32.7969C15.8523 32.3678 14.9005 31.7387 14.0987 30.9458C13.297 30.1529 12.661 29.2115 12.2271 28.1756C11.7932 27.1395 11.5699 26.0291 11.5699 24.9077H2.93579Z" fill="url(#paint1_linear_829_8964)"/>
<path d="M2.93738 24.9073C2.93738 15.4751 10.6686 7.82886 20.2055 7.82886C21.6987 7.82886 23.1476 8.01629 24.5296 8.36867C21.5642 9.12418 18.8287 10.6531 16.6266 12.831C13.3882 16.0338 11.5688 20.3779 11.5688 24.9073H2.93738Z" fill="#73E5E2"/>
<defs>
<linearGradient id="paint0_linear_829_8964" x1="46.1054" y1="16.3681" x2="11.569" y2="16.3681" gradientUnits="userSpaceOnUse">
<stop stop-color="#73E5E2"/>
<stop offset="1" stop-color="#394F87"/>
</linearGradient>
<linearGradient id="paint1_linear_829_8964" x1="2.93579" y1="33.4469" x2="37.4722" y2="33.4469" gradientUnits="userSpaceOnUse">
<stop stop-color="#FBDC8E"/>
<stop offset="1" stop-color="#FB958E"/>
</linearGradient>
</defs>
</svg>
